<svg width="16" height="16" viewBox="0 0 16 16" fill="none" xmlns="http://www.w3.org/2000/svg">
<path d="M3.44727 0.125C3.57314 0.125 3.69386 0.175003 3.78287 0.26401C3.87187 0.353016 3.92188 0.473735 3.92188 0.599609V1.07422H11.5156V0.599609C11.5156 0.473735 11.5656 0.353016 11.6546 0.26401C11.7436 0.175003 11.8644 0.125 11.9902 0.125C12.1161 0.125 12.2368 0.175003 12.3258 0.26401C12.4148 0.353016 12.4648 0.473735 12.4648 0.599609V1.07422H13.4141C13.9176 1.07422 14.4004 1.27423 14.7565 1.63026C15.1125 1.98628 15.3125 2.46916 15.3125 2.97266V13.4141C15.3125 13.9176 15.1125 14.4004 14.7565 14.7565C14.4004 15.1125 13.9176 15.3125 13.4141 15.3125H2.02344C1.51994 15.3125 1.03707 15.1125 0.681039 14.7565C0.325013 14.4004 0.125 13.9176 0.125 13.4141V4.87109H15.3125V3.92188H0.125V2.97266C0.125 2.46916 0.325013 1.98628 0.681039 1.63026C1.03707 1.27423 1.51994 1.07422 2.02344 1.07422H2.97266V0.599609C2.97266 0.473735 3.02266 0.353016 3.11167 0.26401C3.20067 0.175003 3.32139 0.125 3.44727 0.125V0.125Z" fill="#BF743C"/>
</svg>
