<svg width="16" height="14" viewBox="0 0 16 14" fill="none" xmlns="http://www.w3.org/2000/svg">
<path d="M15.2296 0.978028V1.44621C15.2296 1.44621 13.9155 1.19087 13.9171 2.19403C13.9238 4.7796 14.7371 9.04792 9.00105 9.39634V11.6371C9.00105 11.6371 8.97644 12.7396 10.7735 12.7658L10.7736 13.0606H5.29109V12.7657C7.08808 12.7395 7.06175 11.637 7.06175 11.637V9.39624C1.32747 9.04799 2.14081 4.77976 2.1457 2.19419C2.14901 1.19092 0.834961 1.44626 0.834961 1.44626V0.97808C4.43368 0.847199 3.95076 2.46249 4.00836 5.48502C4.08199 9.34731 7.06193 8.84639 7.06193 8.84639V2.38388C7.06193 1.29082 5.42064 1.47233 5.42064 1.47233V0.977926H10.6442V1.47233C10.6442 1.47233 9.00133 1.29073 9.00133 2.38388V8.84639C9.00133 8.84639 11.9829 9.34731 12.0567 5.48502C12.114 2.46231 11.6309 0.847194 15.2296 0.97808L15.2296 0.978028Z" fill="#BF743C"/>
</svg>
