<svg width="18" height="18" viewBox="0 0 18 18" fill="none" xmlns="http://www.w3.org/2000/svg">
<path d="M9.00002 6.65697C7.70979 6.65697 6.65686 7.7099 6.65686 9.00013C6.65686 10.2904 7.70979 11.3433 9.00002 11.3433C10.2903 11.3433 11.3432 10.2904 11.3432 9.00013C11.3432 7.7099 10.2903 6.65697 9.00002 6.65697ZM16.0278 9.00013C16.0278 8.02982 16.0365 7.0683 15.9821 6.09974C15.9276 4.97474 15.6709 3.9763 14.8483 3.15365C14.0238 2.32923 13.0272 2.07435 11.9022 2.01986C10.9319 1.96537 9.97033 1.97416 9.00178 1.97416C8.03147 1.97416 7.06994 1.96537 6.10139 2.01986C4.97639 2.07435 3.97795 2.33099 3.1553 3.15365C2.33088 3.97806 2.076 4.97474 2.02151 6.09974C1.96701 7.07005 1.9758 8.03158 1.9758 9.00013C1.9758 9.96869 1.96701 10.932 2.02151 11.9005C2.076 13.0255 2.33264 14.024 3.1553 14.8466C3.97971 15.671 4.97639 15.9259 6.10139 15.9804C7.0717 16.0349 8.03322 16.0261 9.00178 16.0261C9.97209 16.0261 10.9336 16.0349 11.9022 15.9804C13.0272 15.9259 14.0256 15.6693 14.8483 14.8466C15.6727 14.0222 15.9276 13.0255 15.9821 11.9005C16.0383 10.932 16.0278 9.97045 16.0278 9.00013V9.00013ZM9.00002 12.6054C7.0049 12.6054 5.39475 10.9953 5.39475 9.00013C5.39475 7.00502 7.0049 5.39486 9.00002 5.39486C10.9951 5.39486 12.6053 7.00502 12.6053 9.00013C12.6053 10.9953 10.9951 12.6054 9.00002 12.6054ZM12.753 6.08919C12.2871 6.08919 11.911 5.71302 11.911 5.2472C11.911 4.78138 12.2871 4.40521 12.753 4.40521C13.2188 4.40521 13.5949 4.78138 13.5949 5.2472C13.5951 5.35781 13.5734 5.46737 13.5311 5.56958C13.4889 5.6718 13.4269 5.76468 13.3486 5.84289C13.2704 5.9211 13.1776 5.98312 13.0753 6.02539C12.9731 6.06765 12.8636 6.08933 12.753 6.08919V6.08919Z" fill="#BF743C"/>
</svg>
