<svg width="16" height="16" viewBox="0 0 16 16" fill="none" xmlns="http://www.w3.org/2000/svg">
<path d="M15.6377 7.87699L8.39729 0.641831C8.34516 0.589596 8.28324 0.548155 8.21507 0.51988C8.1469 0.491605 8.07383 0.477051 8.00003 0.477051C7.92623 0.477051 7.85315 0.491605 7.78498 0.51988C7.71682 0.548155 7.65489 0.589596 7.60276 0.641831L0.362329 7.87699C0.151392 8.08793 0.0318604 8.37445 0.0318604 8.67328C0.0318604 9.29379 0.536353 9.79828 1.15686 9.79828H1.91975V14.961C1.91975 15.2721 2.17112 15.5235 2.48225 15.5235H6.87503V11.586H8.84378V15.5235H13.5178C13.8289 15.5235 14.0803 15.2721 14.0803 14.961V9.79828H14.8432C15.142 9.79828 15.4285 9.68051 15.6395 9.46781C16.0772 9.02836 16.0772 8.31644 15.6377 7.87699V7.87699Z" fill="#BF743C"/>
</svg>
