<svg width="14" height="14" viewBox="0 0 14 14" fill="none" xmlns="http://www.w3.org/2000/svg">
<path d="M9.52082 11.4721C9.86644 11.8321 9.86644 12.2641 9.52082 12.6097C9.27603 12.8545 9.03124 13.0849 8.80082 13.3297C8.46964 13.704 8.06644 13.8192 7.59124 13.7905C6.90007 13.7473 6.26644 13.5314 5.66167 13.2289C4.30804 12.5665 3.15604 11.6593 2.17687 10.5073C1.45687 9.65775 0.866441 8.7217 0.477718 7.68492C0.290487 7.18087 0.160918 6.66247 0.189744 6.11535C0.218572 5.76972 0.348149 5.48172 0.592944 5.2513C0.86657 4.99215 1.11134 4.7329 1.38497 4.47375C1.7306 4.12812 2.16252 4.12812 2.50817 4.47375L3.76094 5.72652C4.12094 6.08652 4.12094 6.51855 3.76094 6.87855C3.5018 7.1377 3.24254 7.39695 2.9834 7.6561C2.91137 7.72812 2.91137 7.77131 2.9402 7.85769C3.11297 8.27524 3.35775 8.63524 3.64583 8.98089C4.20743 9.67207 4.8554 10.2913 5.60423 10.7665C5.76263 10.8674 5.94986 10.9393 6.12263 11.0401C6.20901 11.0833 6.26667 11.069 6.33859 10.997C6.59774 10.7378 6.85699 10.4642 7.11614 10.2049C7.46176 9.8593 7.89369 9.8593 8.23934 10.2049C8.68561 10.637 9.10329 11.0545 9.52083 11.4722L9.52082 11.4721ZM13.7976 4.51692C13.7976 6.89287 11.868 8.82252 9.49202 8.82252C8.68564 8.82252 7.92244 8.60656 7.28882 8.21772C6.65519 8.67857 5.99287 8.7505 5.51764 8.67857C5.35924 8.64975 5.33041 8.43379 5.47445 8.36177C5.892 8.16018 6.16562 7.75697 6.32402 7.42583C5.6184 6.66263 5.18647 5.6402 5.18647 4.51703C5.18647 2.14108 7.11605 0.211426 9.49208 0.211426C11.868 0.211325 13.7977 2.1409 13.7977 4.51703L13.7976 4.51692ZM10.0104 2.02565C10.0104 1.73767 9.77999 1.50725 9.49202 1.50725C7.83607 1.50725 6.48242 2.86087 6.48242 4.51685C6.48242 4.80482 6.71284 5.03525 7.00082 5.03525C7.28879 5.03525 7.51922 4.80482 7.51922 4.51685C7.51922 3.42247 8.41199 2.54407 9.49199 2.54407C9.77997 2.52971 10.0104 2.29928 10.0104 2.02567L10.0104 2.02565Z" fill="#BF743C"/>
</svg>
