<svg width="12" height="16" viewBox="0 0 12 16" fill="none" xmlns="http://www.w3.org/2000/svg">
<path d="M4.12264 0C2.4483 0 1.08158 1.38917 1.08158 3.08972C1.08158 4.79038 2.44838 6.17858 4.12264 6.17858C5.79699 6.17858 7.16371 4.79029 7.16371 3.08972C7.16382 1.38906 5.79702 0 4.12264 0ZM4.12264 6.95601C1.84723 6.95601 0 8.83236 0 11.1434V13.5166C0.000109873 13.6493 0.0520842 13.7765 0.144602 13.8704C0.237122 13.9641 0.362495 14.0167 0.493153 14.0166H3.97276C3.75432 13.4691 3.63135 12.8736 3.63135 12.2499C3.63135 10.2416 4.88246 8.51479 6.6291 7.82422C5.93476 7.2817 5.06671 6.95602 4.12272 6.95602L4.12264 6.95601ZM8.30802 8.49999C6.2748 8.49999 4.61603 10.1848 4.61603 12.25C4.61603 14.3152 6.2748 16 8.30802 16C10.3412 16 12 14.3152 12 12.25C12 10.1848 10.3412 8.49999 8.30802 8.49999ZM8.38307 10.2763C8.46855 10.2829 8.55459 10.2972 8.63975 10.3203C9.32113 10.5052 9.76712 11.1823 9.67525 11.8926C9.6058 12.4299 9.24385 12.8673 8.76664 13.0489V13.7237H8.76653C8.7695 13.8581 8.71895 13.9883 8.62632 14.0845C8.53369 14.1807 8.40678 14.2349 8.27425 14.2349C8.14174 14.2349 8.01482 14.1807 7.92219 14.0845C7.82956 13.9883 7.77901 13.8581 7.78198 13.7237V12.6386C7.78044 12.5066 7.83044 12.3792 7.92109 12.2844C8.01174 12.1896 8.13557 12.1351 8.26556 12.1328C8.28039 12.1325 8.29512 12.1328 8.30984 12.1338C8.51169 12.118 8.67035 11.972 8.69727 11.7637C8.72573 11.5434 8.59607 11.3406 8.38478 11.2833C8.17348 11.2259 7.96348 11.3328 7.87999 11.5382L7.8801 11.5381C7.8133 11.7037 7.66452 11.8204 7.49003 11.8444C7.31543 11.8684 7.14159 11.796 7.0338 11.6545C6.92601 11.513 6.90085 11.3238 6.96765 11.1582C7.20324 10.5788 7.78473 10.2305 8.3829 10.2764L8.38307 10.2763Z" fill="#BF743C"/>
</svg>
