<svg width="146" height="143" viewBox="0 0 146 143" fill="none" xmlns="http://www.w3.org/2000/svg">
<g clip-path="url(#clip0_1458_12507)">
<path d="M92.6859 32.1602H53.3452C52.4487 32.1613 51.5893 32.5192 50.9553 33.1552C50.3214 33.7913 49.9648 34.6537 49.9637 35.5533V123.286L49.5128 123.424L39.8619 126.39C39.4046 126.53 38.9105 126.482 38.4883 126.257C38.0661 126.032 37.7502 125.647 37.6099 125.189L8.90291 31.0993C8.76321 30.6404 8.81083 30.1446 9.03529 29.7208C9.25976 29.2971 9.64271 28.9801 10.1 28.8396L24.972 24.2703L68.0865 11.0283L82.9584 6.45898C83.1847 6.38908 83.4225 6.36466 83.6583 6.3871C83.894 6.40955 84.123 6.47842 84.3322 6.58978C84.5414 6.70113 84.7267 6.85278 84.8774 7.03606C85.0281 7.21933 85.1413 7.43063 85.2105 7.65786L92.5484 31.7078L92.6859 32.1602Z" fill="#F2F2F2"/>
<path d="M101.272 31.708L92.4282 2.72224C92.2811 2.23928 92.0405 1.79015 91.7203 1.40051C91.4001 1.01087 91.0066 0.688355 90.5621 0.451397C90.1177 0.214439 89.631 0.0676792 89.13 0.0195095C88.629 -0.0286603 88.1234 0.0227039 87.6422 0.170662L66.7331 6.59258L23.6209 19.8368L2.71183 26.261C1.7405 26.5603 0.927194 27.234 0.45043 28.1344C-0.0263337 29.0347 -0.127605 30.0881 0.16885 31.0633L30.3952 130.125C30.636 130.912 31.122 131.601 31.7817 132.091C32.4414 132.58 33.2402 132.845 34.0609 132.846C34.4407 132.846 34.8184 132.789 35.1812 132.676L49.5144 128.274L49.9653 128.134V127.661L49.5144 127.799L35.0482 132.244C34.1909 132.506 33.2648 132.417 32.4733 131.995C31.6817 131.573 31.0892 130.853 30.8258 129.993L0.601778 30.9298C0.471271 30.5039 0.425786 30.0563 0.467925 29.6126C0.510065 29.169 0.638998 28.7381 0.84735 28.3445C1.0557 27.951 1.33938 27.6025 1.68213 27.3192C2.02488 27.0358 2.41998 26.823 2.84479 26.693L23.7539 20.2689L66.8662 7.0269L87.7753 0.602715C88.0975 0.504045 88.4325 0.453735 88.7694 0.45342C89.4924 0.455049 90.1959 0.688933 90.7768 1.12082C91.3577 1.5527 91.7856 2.15989 91.9977 2.85344L100.801 31.708L100.941 32.1604H101.41L101.272 31.708Z" fill="#3F3D56"/>
<path d="M27.6566 28.9135C27.2221 28.9132 26.7991 28.7732 26.4497 28.514C26.1003 28.2548 25.8429 27.8901 25.7153 27.4734L22.8116 17.9566C22.7336 17.7009 22.7065 17.4324 22.7319 17.1662C22.7573 16.9001 22.8348 16.6416 22.9598 16.4055C23.0848 16.1694 23.2549 15.9603 23.4604 15.7902C23.666 15.62 23.9029 15.4922 24.1577 15.414L63.8206 3.2298C64.3351 3.07226 64.8909 3.12599 65.366 3.3792C65.8411 3.63241 66.1966 4.06442 66.3546 4.5804L69.2583 14.0973C69.4152 14.6136 69.3616 15.1712 69.1093 15.6479C68.8569 16.1246 68.4265 16.4814 67.9123 16.64L28.2493 28.8242C28.0573 28.8833 27.8575 28.9134 27.6566 28.9135Z" fill="#E7975D"/>
<path d="M42.8681 10.1689C45.3582 10.1689 47.3768 8.14341 47.3768 5.64483C47.3768 3.14625 45.3582 1.12076 42.8681 1.12076C40.378 1.12076 38.3594 3.14625 38.3594 5.64483C38.3594 8.14341 40.378 10.1689 42.8681 10.1689Z" fill="#E7975D"/>
<path d="M42.8668 8.50961C44.4436 8.50961 45.7218 7.22701 45.7218 5.64483C45.7218 4.06266 44.4436 2.78005 42.8668 2.78005C41.29 2.78005 40.0117 4.06266 40.0117 5.64483C40.0117 7.22701 41.29 8.50961 42.8668 8.50961Z" fill="white"/>
<path d="M135.855 131.69H59.6584C59.1504 131.689 58.6633 131.486 58.3041 131.126C57.9448 130.766 57.7428 130.277 57.7422 129.767V38.1546C57.7428 37.6449 57.9448 37.1561 58.3041 36.7957C58.6633 36.4352 59.1504 36.2325 59.6584 36.2319H135.855C136.364 36.2325 136.851 36.4352 137.21 36.7957C137.569 37.1562 137.771 37.6449 137.772 38.1546V129.767C137.771 130.277 137.569 130.766 137.21 131.126C136.851 131.486 136.364 131.689 135.855 131.69Z" fill="#E6E6E6"/>
<path d="M100.8 31.7078H53.3461C52.3301 31.7093 51.3561 32.1149 50.6377 32.8357C49.9193 33.5566 49.5151 34.5338 49.5137 35.5533V127.799L49.9645 127.661V35.5533C49.9656 34.6537 50.3223 33.7913 50.9562 33.1552C51.5901 32.5192 52.4496 32.1613 53.3461 32.1602H100.94L100.8 31.7078ZM142.168 31.7078H53.3461C52.3301 31.7093 51.3561 32.1149 50.6377 32.8357C49.9193 33.5566 49.5151 34.5338 49.5137 35.5533V139.155C49.5151 140.174 49.9193 141.151 50.6377 141.872C51.3561 142.593 52.3301 142.999 53.3461 143H142.168C143.184 142.999 144.157 142.593 144.876 141.872C145.594 141.151 145.998 140.174 146 139.155V35.5533C145.998 34.5338 145.594 33.5566 144.876 32.8357C144.157 32.1149 143.184 31.7093 142.168 31.7078ZM145.549 139.155C145.548 140.054 145.191 140.916 144.557 141.553C143.924 142.189 143.064 142.546 142.168 142.548H53.3461C52.4496 142.546 51.5901 142.189 50.9562 141.553C50.3223 140.916 49.9656 140.054 49.9645 139.155V35.5533C49.9656 34.6537 50.3223 33.7913 50.9562 33.1552C51.5901 32.5192 52.4496 32.1613 53.3461 32.1602H142.168C143.064 32.1613 143.924 32.5192 144.557 33.1552C145.191 33.7913 145.548 34.6537 145.549 35.5533V139.155Z" fill="#3F3D56"/>
<path d="M118.497 41.6608H77.0172C76.4793 41.6602 75.9636 41.4455 75.5832 41.0638C75.2028 40.6822 74.9889 40.1647 74.9883 39.6249V29.672C74.9889 29.1322 75.2028 28.6148 75.5832 28.2331C75.9636 27.8515 76.4793 27.6368 77.0172 27.6362H118.497C119.035 27.6368 119.551 27.8515 119.931 28.2331C120.312 28.6148 120.526 29.1322 120.526 29.672V39.6249C120.526 40.1647 120.312 40.6822 119.931 41.0638C119.551 41.4455 119.035 41.6602 118.497 41.6608Z" fill="#E7975D"/>
<path d="M97.7568 28.3148C100.247 28.3148 102.265 26.2893 102.265 23.7907C102.265 21.2921 100.247 19.2666 97.7568 19.2666C95.2667 19.2666 93.248 21.2921 93.248 23.7907C93.248 26.2893 95.2667 28.3148 97.7568 28.3148Z" fill="#E7975D"/>
<path d="M97.756 26.5463C99.2727 26.5463 100.502 25.3126 100.502 23.7907C100.502 22.2688 99.2727 21.0351 97.756 21.0351C96.2393 21.0351 95.0098 22.2688 95.0098 23.7907C95.0098 25.3126 96.2393 26.5463 97.756 26.5463Z" fill="white"/>
</g>
<defs>
<clipPath id="clip0_1458_12507">
<rect width="146" height="143" fill="white"/>
</clipPath>
</defs>
</svg>
