<svg width="21" height="25" viewBox="0 0 21 25" fill="none" xmlns="http://www.w3.org/2000/svg">
<path fill-rule="evenodd" clip-rule="evenodd" d="M9.7127 0.000973522C9.45147 -0.00335374 9.19206 0.00712316 8.93334 0.024888C5.82564 0.241024 2.93553 1.97058 1.31407 4.78355C-0.843905 8.52643 -0.348314 13.2185 2.83274 16.3291C3.50394 16.9855 3.7139 17.5767 3.75378 18.2732C3.79364 18.9701 3.62852 19.7796 3.47797 20.7293C3.4101 21.1581 3.49345 21.5906 3.72463 21.9635C3.95579 22.3368 4.31403 22.6538 4.78548 22.9521C6.66902 24.1447 9.87578 24.938 12.2753 24.6152C13.2799 24.4799 13.8539 23.772 13.9971 22.8877C14.0821 22.3634 14.1618 21.9864 14.2891 21.8083C14.4162 21.6304 14.5827 21.525 15.1543 21.5348C15.7369 21.545 16.3505 21.6084 16.9272 21.3959C17.5036 21.1834 17.9527 20.6103 18.0495 19.7032C18.093 19.2958 18.0154 19.3331 18.2905 18.9805C18.7285 18.4193 18.9093 18.0419 18.6547 17.4295C19.2402 17.2471 19.3669 16.7765 19.1981 16.2406L18.8635 15.1777L20.1704 14.6901C20.5496 14.5487 20.8006 14.2139 20.8611 13.8654C20.9217 13.5171 20.8215 13.1548 20.5883 12.8692C19.8399 11.9524 19.1687 11.4717 18.7936 10.6137C18.5741 10.112 18.6137 9.93569 18.708 9.61524C18.802 9.29479 18.9979 8.84113 19 8.14188C19.0057 6.04314 17.85 4.4074 16.7377 3.17892C15.4037 1.91213 13.5988 0.712797 12.1122 0.340404C11.2989 0.137702 10.4342 0.0126675 9.71241 0.00105315L9.7127 0.000973522ZM9.2777 0.837065V4.23239C9.2777 4.66922 9.57013 5.01793 9.90972 5.11401C10.2493 5.21012 10.6347 5.10991 10.879 4.81657C11.1642 4.47403 11.578 4.37905 11.9101 4.4927C12.2419 4.60635 12.5264 4.90653 12.5264 5.57682C12.5264 6.24686 12.2417 6.54795 11.9101 6.66158C11.5783 6.77523 11.1647 6.68048 10.879 6.33772C10.6344 6.04391 10.2493 5.94689 9.90972 6.04323C9.57014 6.13911 9.2777 6.48507 9.2777 6.92188V9.76331H7.18327C7.00289 9.76331 6.9849 9.71184 6.96167 9.62939C6.93844 9.54694 6.96713 9.43307 7.03683 9.37499C7.58526 8.91834 7.78138 8.20364 7.57273 7.59372C7.36411 6.98379 6.72824 6.51485 5.83682 6.51438C4.9454 6.51438 4.31314 6.98355 4.10453 7.59372C3.89591 8.20364 4.09155 8.91834 4.64043 9.37499C4.71012 9.43306 4.73882 9.54694 4.71559 9.62939C4.69236 9.71184 4.67346 9.76331 4.4933 9.76331L0.823543 9.76263C0.801679 8.20525 1.20002 6.62898 2.02725 5.19369C3.5104 2.62075 6.14957 1.04244 8.98942 0.844497C9.0853 0.83812 9.1821 0.840398 9.27776 0.836982L9.2777 0.837065ZM9.96395 0.837065C10.7581 0.89332 11.3824 0.992395 12.0604 1.17596C13.3538 1.52647 14.9192 2.39809 16.1269 3.73134C17.186 4.90018 18.1831 6.3455 18.1781 8.13931C18.1767 8.69115 18.0355 8.98496 17.918 9.3851C17.8843 9.50058 17.8606 9.62789 17.8451 9.76272H14.6955C14.2587 9.76272 13.9129 10.0581 13.8168 10.3977C13.7207 10.7373 13.818 11.1197 14.1113 11.3641C14.4541 11.6492 14.5488 12.063 14.4352 12.3951C14.3216 12.727 14.0214 13.0137 13.3511 13.0137C12.681 13.0137 12.38 12.7272 12.2663 12.3951C12.1527 12.0633 12.2474 11.6497 12.5902 11.3641C12.884 11.1195 12.9837 10.7371 12.8876 10.3977C12.7918 10.0581 12.4428 9.76272 12.006 9.76272H9.96306V6.92129C9.96306 6.74091 10.0145 6.72497 10.097 6.70174C10.1794 6.67851 10.2933 6.70721 10.3514 6.7769C10.808 7.32533 11.522 7.52145 12.132 7.31281C12.7419 7.10418 13.2113 6.46832 13.2113 5.5769C13.2113 4.68547 12.7421 4.05322 12.132 3.8446C11.522 3.63598 10.8083 3.82911 10.3514 4.37754C10.2933 4.44723 10.179 4.47593 10.097 4.4527C10.015 4.42947 9.96306 4.41353 9.96306 4.23315L9.96352 0.837129L9.96395 0.837065ZM5.83637 7.19987C6.50641 7.19987 6.81047 7.48388 6.92388 7.81551C7.03752 8.14735 6.93982 8.56094 6.59727 8.84657C6.30347 9.09118 6.20645 9.47428 6.30279 9.81385C6.39867 10.1534 6.74691 10.4479 7.18371 10.4479H9.27767V13.5522C9.27767 13.7326 9.22324 13.7485 9.14079 13.7717C9.05834 13.795 8.94424 13.7663 8.88639 13.6966C8.42975 13.1481 7.71849 12.955 7.10879 13.1636C6.49887 13.3722 6.02695 14.0045 6.02695 14.8959C6.02695 15.7873 6.49886 16.4203 7.10879 16.6289C7.71872 16.8375 8.42975 16.6442 8.88639 16.0953C8.94447 16.0256 9.0588 15.9978 9.14079 16.0208C9.22324 16.0441 9.27767 16.0593 9.27767 16.2399L9.27471 23.6668C7.74672 23.403 6.21214 22.881 5.22387 22.2552C4.81802 21.9983 4.56065 21.7546 4.42311 21.5325C4.28555 21.3104 4.2482 21.1157 4.28919 20.8574C4.43586 19.933 4.62217 19.0794 4.5732 18.2251C4.52424 17.3708 4.20538 16.519 3.40827 15.7394C1.88757 14.2519 1.04395 12.383 0.86041 10.4477H4.49192C4.92876 10.4477 5.27746 10.1533 5.37355 9.81368C5.46966 9.4741 5.37241 9.09099 5.07906 8.8464C4.7363 8.56126 4.63904 8.14744 4.75246 7.81534C4.86588 7.48419 5.16629 7.20017 5.83635 7.20017L5.83637 7.19987ZM9.96395 10.4479H12.0069C12.1873 10.4479 12.2032 10.4993 12.2264 10.5818C12.2497 10.6642 12.2239 10.7781 12.1542 10.8362C11.6058 11.2928 11.4097 12.0075 11.6183 12.6174C11.827 13.2274 12.4601 13.6993 13.3513 13.6993C14.2428 13.6993 14.878 13.2274 15.0866 12.6174C15.2952 12.0075 15.0996 11.2928 14.5507 10.8362C14.481 10.7781 14.4523 10.6642 14.4755 10.5818C14.4988 10.4993 14.5147 10.4479 14.6951 10.4479H17.8777C17.9112 10.6039 17.9615 10.7683 18.0376 10.943C18.5075 12.0175 19.2955 12.545 19.9498 13.3911C20.1464 13.6455 20.0673 13.8487 19.8806 13.9181L18.5596 14.4112C18.4745 14.4431 18.3168 14.4939 18.1743 14.6626C18.0317 14.8316 17.9823 15.1266 18.0597 15.3698L18.4134 16.4894C18.4672 16.66 18.3913 16.7867 18.1802 16.8026C17.8632 16.8265 17.6541 17.1524 17.824 17.4212C18.1212 17.8917 17.8743 18.1725 17.639 18.4791C17.2926 18.9305 17.2694 19.2683 17.2323 19.6142C17.1558 20.3346 16.9613 20.5057 16.6399 20.6238C16.3188 20.742 15.7783 20.7229 15.1672 20.7124C14.4525 20.7001 13.9146 20.917 13.619 21.331C13.3233 21.7448 13.2666 22.2304 13.1826 22.759C13.0817 23.3931 12.7077 23.7288 12.17 23.7975C11.5091 23.8825 10.7468 23.8661 9.9599 23.772L9.96286 16.2396C9.96286 15.8028 9.66746 15.4577 9.32786 15.3616C8.98828 15.2655 8.60517 15.3627 8.36058 15.6561C8.07544 15.9986 7.66163 16.0936 7.32952 15.98C6.99769 15.8663 6.71097 15.5652 6.71097 14.8952C6.71097 14.2252 6.99748 13.9241 7.32952 13.8104C7.66136 13.6968 8.07495 13.7922 8.36058 14.1352C8.60519 14.429 8.98829 14.5281 9.32786 14.432C9.66744 14.3361 9.96286 13.9878 9.96286 13.551V10.4477L9.96395 10.4479Z" fill="#BF6827"/>
</svg>
