<svg width="26" height="22" viewBox="0 0 26 22" fill="none" xmlns="http://www.w3.org/2000/svg">
<path d="M25.8528 0.294578V1.1269C25.8528 1.1269 23.5165 0.672969 23.5194 2.45636C23.5313 7.05293 24.977 14.641 14.7797 15.2605V19.2441C14.7797 19.2441 14.7359 21.2041 17.9308 21.2507L17.931 21.7746H8.18422V21.2505C11.3789 21.2039 11.3321 19.2439 11.3321 19.2439V15.2603C1.13777 14.6412 2.58372 7.0532 2.5924 2.45663C2.59829 0.673046 0.262207 1.12699 0.262207 1.12699V0.294669C6.65992 0.0619927 5.80141 2.93362 5.90381 8.30701C6.0347 15.1733 11.3324 14.2828 11.3324 14.2828V2.79387C11.3324 0.850646 8.41453 1.17334 8.41453 1.17334V0.294395H17.7009V1.17334C17.7009 1.17334 14.7802 0.850486 14.7802 2.79387V14.2828C14.7802 14.2828 20.0808 15.1733 20.212 8.30701C20.3138 2.9333 19.455 0.0619835 25.8527 0.294669L25.8528 0.294578Z" fill="#BF6827"/>
</svg>
