<svg width="8" height="7" viewBox="0 0 8 7" fill="none" xmlns="http://www.w3.org/2000/svg">
<path d="M0.853553 4.14645C0.658291 3.95118 0.341709 3.95118 0.146447 4.14645C-0.0488155 4.34171 -0.0488155 4.65829 0.146447 4.85355L0.853553 4.14645ZM2.5 6.5L2.14645 6.85355C2.24634 6.95344 2.38382 7.00642 2.52491 6.99938C2.666 6.99234 2.79752 6.92595 2.88698 6.81662L2.5 6.5ZM7.38698 1.31662C7.56184 1.1029 7.53034 0.787885 7.31662 0.613021C7.1029 0.438158 6.78789 0.469659 6.61302 0.683381L7.38698 1.31662ZM0.146447 4.85355L2.14645 6.85355L2.85355 6.14645L0.853553 4.14645L0.146447 4.85355ZM2.88698 6.81662L7.38698 1.31662L6.61302 0.683381L2.11302 6.18338L2.88698 6.81662Z" fill="#D78950"/>
</svg>
