<svg width="174" height="48" viewBox="0 0 174 48" fill="none" xmlns="http://www.w3.org/2000/svg">
<path d="M3.50439 4.07358C3.61158 3.98507 3.67747 3.93689 3.67747 3.93689C3.61645 3.97807 3.55859 4.02376 3.50439 4.07358Z" fill="#1E1E1E"/>
<path d="M8.67098 12.7552C8.67098 12.7552 7.30396 11.5737 7.08328 10.4117C5.63131 9.82585 2.93827 8.82792 2.64729 6.79887C2.42271 5.23655 3.15699 4.37826 3.50461 4.0697C2.908 4.56769 1.03225 6.35654 2.26745 8.44125C3.72431 10.8951 6.73176 12.7786 8.67098 12.7552Z" fill="url(#paint0_linear_1081_4921)"/>
<path d="M6.32534 13.6964C6.32534 13.6964 4.62925 13.4132 3.30421 12.3841C3.30421 12.3841 3.8188 14.0313 8.0888 14.8535C8.0888 14.8535 6.72763 15.537 6.50012 15.5956C6.50012 15.5956 8.72641 15.7401 10.4625 14.6348C10.4625 14.6348 6.9239 12.8908 6.46497 12.6819C6.00604 12.4729 1.9284 10.2329 1.39429 8.50952C1.39429 8.50952 1.5056 11.3978 6.32534 13.6964Z" fill="url(#paint1_linear_1081_4921)"/>
<path d="M10.614 15.3652C10.614 15.3652 9.45694 15.5879 9.22942 15.6484L9.78404 15.9072C9.78404 15.9072 7.45815 16.1542 6.62817 16.6971C6.62817 16.6971 7.88095 16.5301 8.64258 16.6532C9.40421 16.7762 11.4997 16.2626 11.4997 16.2626C11.4997 16.2626 11.1091 15.3965 10.614 15.3652Z" fill="url(#paint2_linear_1081_4921)"/>
<path d="M4.04614 18.5924C4.04614 18.5924 6.54194 17.5857 7.93239 17.6512C8.92251 17.698 10.7817 17.493 11.5355 16.87C11.5355 16.87 10.6567 17.0194 10.1304 17.078C8.98305 17.2 4.6447 16.246 4.04614 18.5924Z" fill="url(#paint3_linear_1081_4921)"/>
<path d="M4.0337 20.7024C5.93386 20.4749 9.03798 19.3862 10.3708 17.9821C10.3708 17.9821 5.51399 18.8784 3.64312 19.8324C1.47541 20.9387 0.347614 22.4024 0 23.5429C0 23.5468 2.30636 20.9055 4.0337 20.7024Z" fill="url(#paint4_linear_1081_4921)"/>
<path d="M10.5457 18.6647C6.96311 21.0658 3.85021 21.5608 4.08553 25.2274C4.08553 25.2274 4.76123 22.2648 7.80481 21.4935C10.4588 20.8207 12.8823 19.6694 13.6781 18.2458C14.3275 17.0789 14.345 15.2335 14.0218 13.6975C14.0257 13.6975 14.1332 16.2626 10.5457 18.6647Z" fill="url(#paint5_linear_1081_4921)"/>
<path d="M8.63966 13.2502C8.63966 13.2502 12.481 14.9102 12.2144 16.3621C12.2144 16.3621 14.4603 14.7188 13.02 12.3411C11.5797 9.96349 8.45219 5.76087 9.17866 4.1927C9.90514 2.62453 11.6198 1.76721 11.6198 1.76721C11.6198 1.76721 9.75379 1.76721 8.33697 4.0892C6.92014 6.41119 9.70399 9.89026 9.70399 9.89026C9.70399 9.89026 6.88402 8.11899 7.4113 4.57547C7.4113 4.57547 6.60963 5.84485 7.10762 7.73622C7.60561 9.6276 9.22651 11.4741 9.22651 11.4741C9.22651 11.4741 8.00693 11.1469 7.06368 8.79762C7.06368 8.79762 6.86839 11.1206 10.2947 13.3791L8.63966 13.2502Z" fill="url(#paint6_linear_1081_4921)"/>
<path d="M15.7208 9.8385C15.3421 9.70819 14.9273 9.73276 14.5667 9.90686C14.5667 9.90686 14.2249 9.30341 13.3861 9.7311C12.564 10.15 12.2925 10.1793 12.2886 10.1822C12.2847 10.1851 12.5874 10.5494 13.2846 10.483C13.2969 10.4804 13.3097 10.4816 13.3213 10.4865C13.333 10.4913 13.3428 10.4995 13.3497 10.5101C13.3566 10.5206 13.3601 10.533 13.3598 10.5456C13.3595 10.5582 13.3554 10.5704 13.3481 10.5806C13.268 10.687 13.0912 10.8306 12.7153 10.8813C12.7153 10.8872 13.4301 11.7504 13.764 12.7132C13.764 12.7132 14.2522 11.6752 14.3987 11.1284C14.4042 11.1055 14.4141 11.084 14.428 11.065C14.442 11.0461 14.4596 11.0301 14.4798 11.0181C14.5618 10.9722 14.6975 10.8364 14.7063 10.439L15.7277 9.9508C15.7379 9.94505 15.7463 9.93653 15.7519 9.92622C15.7575 9.91591 15.7601 9.90423 15.7594 9.89251C15.7587 9.88079 15.7547 9.8695 15.7479 9.85995C15.7411 9.8504 15.7317 9.84297 15.7208 9.8385ZM14.2269 10.0719C14.2269 10.1139 14.1595 10.151 14.0726 10.1539C13.9857 10.1568 13.9144 10.1246 13.9134 10.0826C13.9124 10.0406 13.9808 10.0025 14.0677 9.99962C14.1546 9.99669 14.2269 10.0289 14.2288 10.0719H14.2269Z" fill="#EFA441"/>
<g clip-path="url(#clip0_1081_4921)">
<path d="M107.281 25.1142C109.015 20.8175 110.811 16.5623 112.756 12.3458C113.846 9.99402 115.108 7.68681 116.319 5.3974C116.344 5.35919 116.359 5.31531 116.363 5.26972C116.363 5.0975 116.105 5.09749 116.105 4.90745C116.111 4.82471 116.133 4.74395 116.17 4.6699C116.461 4.16229 116.868 3.73083 117.358 3.41088C117.453 3.34978 117.565 3.3197 117.679 3.32477C117.767 3.32231 117.855 3.33863 117.937 3.37265C118.019 3.40667 118.092 3.45763 118.153 3.52215C118.213 3.58668 118.26 3.66332 118.288 3.74702C118.317 3.83071 118.328 3.91957 118.32 4.00773C118.308 4.27038 118.235 4.52658 118.106 4.75602C117.186 6.48717 116.117 8.39055 115.241 10.1009C115.262 10.1009 115.283 10.1247 115.306 10.1247C116.93 8.36977 121.034 4.48283 123.685 4.48283H123.836C124.564 4.5244 124.777 4.99357 124.777 5.52806C124.764 5.8551 124.706 6.17878 124.605 6.49014C123.685 9.29325 120.416 12.2864 118.127 14.3175C118.02 14.4036 117.934 14.5105 117.786 14.6382C117.821 14.6471 117.856 14.654 117.892 14.6589C118.278 14.6589 119.261 14.362 120.63 14.362C121.565 14.3626 122.494 14.5068 123.385 14.7896C124.332 15.06 125.163 15.6368 125.748 16.4299C126.332 17.2229 126.637 18.1874 126.615 19.1724C126.619 19.3301 126.612 19.4878 126.594 19.6446C126.399 21.2307 125.895 22.7632 125.11 24.1551C122.86 28.5088 119.515 32.2013 115.404 34.8686C112.519 36.7928 108.754 38.5893 105.12 38.5893C104.546 38.5929 103.974 38.5422 103.41 38.4378C102.435 38.2648 101.553 37.7526 100.92 36.9918C100.286 36.2311 99.9419 35.2707 99.9481 34.2807C99.9525 33.8148 100.032 33.3526 100.183 32.9118C101.207 29.8771 103.989 27.46 106.637 25.8565C106.936 25.6967 107.165 25.4324 107.281 25.1142ZM107.412 26.3554C106.576 28.4172 105.897 30.5395 105.381 32.7039C105.346 32.744 105.304 32.7763 105.256 32.7988C105.207 32.8213 105.155 32.8335 105.102 32.8346C105.04 32.8337 104.978 32.815 104.926 32.7809C104.873 32.7467 104.832 32.6985 104.805 32.6416C104.805 32.6208 104.784 32.597 104.784 32.5763C104.828 32.3342 104.9 32.0981 104.998 31.8725C105.212 30.9817 106.216 27.7451 106.581 26.783C106.607 26.7207 106.628 26.6561 106.643 26.59C106.643 26.5844 106.641 26.5792 106.637 26.5753C106.633 26.5714 106.628 26.5692 106.622 26.5692C106.603 26.5683 106.583 26.5716 106.564 26.5787C106.546 26.5859 106.529 26.5968 106.515 26.6107C104.14 28.1726 101.299 30.6105 100.637 33.5175C100.576 33.7764 100.547 34.0416 100.551 34.3074C100.552 35.1139 100.825 35.8964 101.325 36.5288C101.826 37.1612 102.524 37.6067 103.309 37.7935C103.895 37.915 104.492 37.9728 105.09 37.9657C107.175 37.9102 109.227 37.4303 111.12 36.5552C116.97 33.9168 121.744 29.3598 124.653 23.6384C125.294 22.4209 125.977 20.669 125.977 19.1279C125.981 18.7446 125.932 18.3627 125.828 17.9936C125.662 17.3093 125.304 16.6865 124.797 16.1981C124.289 15.7096 123.653 15.3756 122.963 15.235C122.186 15.0453 121.389 14.9457 120.588 14.9381C119.012 14.9423 117.462 15.3393 116.078 16.0932C115.916 16.1996 115.735 16.2723 115.544 16.307C115.489 16.3062 115.434 16.292 115.386 16.2657C115.337 16.2393 115.296 16.2015 115.265 16.1555C115.225 16.0913 115.203 16.0173 115.203 15.9417C115.216 15.8526 115.25 15.7677 115.302 15.6937C115.353 15.6196 115.421 15.5582 115.499 15.5141C118.213 13.1832 122.702 9.6763 123.943 6.30901C124.041 6.07777 124.099 5.83189 124.115 5.58151C124.115 5.36771 124.029 5.19549 123.818 5.1747H123.667C121.188 5.1747 116.613 9.68521 115.223 11.3748C114.007 12.8268 112.973 14.4224 112.145 16.1258C110.8 18.9913 109.472 21.8775 108.169 24.7371C108.148 24.7994 108.104 24.844 108.104 24.9063C108.1 24.9436 108.108 24.9811 108.128 25.0132C109.956 24.1696 111.902 23.608 113.899 23.3474C115.63 23.0551 117.381 22.8904 119.136 22.8545C119.499 22.8545 119.864 22.8545 120.226 22.8752C121.081 22.9406 121.978 22.9821 122.75 23.3682C122.791 23.3906 122.826 23.4247 122.848 23.4664C122.871 23.5081 122.881 23.5555 122.877 23.6027C122.875 23.6983 122.837 23.7895 122.77 23.8581C122.712 23.9123 122.636 23.943 122.557 23.9442C122.528 23.945 122.5 23.9398 122.474 23.9291C122.448 23.9184 122.425 23.9023 122.405 23.8819C122.322 23.7958 122.257 23.5374 122.15 23.4959C121.181 23.2848 120.191 23.1851 119.199 23.1989C117.42 23.2324 115.647 23.4182 113.899 23.7542C111.855 24.124 109.877 24.7913 108.027 25.7348C107.75 25.8538 107.53 26.0751 107.412 26.3524V26.3554Z" fill="#843F00"/>
<path d="M128.144 25.9071C128.009 25.9104 127.877 25.8608 127.777 25.7688C127.678 25.6768 127.618 25.5496 127.61 25.4142C127.615 25.3479 127.63 25.2828 127.654 25.2211C127.74 24.9658 127.824 24.7312 127.931 24.4729C128.282 23.7653 128.769 23.1337 129.365 22.614C129.695 22.3281 130.115 22.1682 130.552 22.1627C130.784 22.1516 131.016 22.2004 131.224 22.3044C131.431 22.4084 131.609 22.5641 131.74 22.7566C131.76 22.7773 131.76 22.7773 131.781 22.7773C131.867 22.7773 131.974 22.6497 132.078 22.6289C132.099 22.6289 132.143 22.6051 132.164 22.6051C132.336 22.6051 132.423 22.7981 132.423 22.9911C132.428 23.0496 132.42 23.1085 132.399 23.1634C132.25 23.6325 131.33 25.1944 131.33 26.0704C131.318 26.147 131.324 26.2253 131.347 26.2992C131.371 26.3731 131.411 26.4406 131.464 26.4964C131.518 26.5522 131.584 26.5948 131.657 26.6209C131.73 26.6469 131.808 26.6556 131.885 26.6465H131.909C134.816 26.6465 138.556 23.5464 138.877 23.4187H138.904C138.925 23.4187 138.925 23.4187 138.925 23.4395C138.923 23.4563 138.916 23.472 138.904 23.4841C137.559 24.8529 133.946 26.9256 132.043 27.0117H131.915C131.081 27.0117 130.802 26.498 130.802 25.8774C130.827 25.2817 130.979 24.6984 131.25 24.167C130.502 24.6599 129.05 25.6517 128.322 25.8982C128.264 25.9135 128.204 25.9165 128.144 25.9071ZM128.809 24.8143C128.809 24.8797 128.83 24.9005 128.851 24.9005C128.889 24.8924 128.925 24.8783 128.958 24.8589C129.729 24.4335 130.441 23.9083 131.075 23.297C131.03 23.2094 130.963 23.1356 130.88 23.0833C130.796 23.031 130.701 23.0023 130.603 23C130.498 23.002 130.395 23.0317 130.306 23.0862C129.74 23.4431 129.265 23.9258 128.916 24.4966C128.858 24.5934 128.821 24.7019 128.809 24.8143Z" fill="#843F00"/>
<path d="M136.781 30.0315C136.781 28.2796 139.346 25.2419 139.708 24.3036C139.727 24.2712 139.735 24.2339 139.732 24.1967C139.73 24.1164 139.702 24.0391 139.651 23.9767C139.601 23.9144 139.531 23.8706 139.453 23.8522C138.984 23.8106 138.449 23.7453 138.265 23.3623C138.218 23.2706 138.196 23.1683 138.2 23.0653C138.195 22.9511 138.213 22.8371 138.254 22.7303C138.295 22.6236 138.358 22.5264 138.437 22.4447C138.554 22.3551 138.695 22.3033 138.841 22.2962C138.885 22.295 138.929 22.3063 138.967 22.3289C139.005 22.3515 139.035 22.3845 139.055 22.4239C139.091 22.5185 139.106 22.6198 139.1 22.7209V22.8485C139.1 22.9554 139.12 23.0623 139.248 23.1039C139.581 23.1907 139.903 23.3131 140.21 23.4692C140.334 23.5382 140.436 23.6409 140.504 23.7654C140.573 23.8899 140.604 24.0312 140.596 24.1729C140.601 24.3135 140.572 24.4533 140.51 24.5797C139.592 26.204 137.217 28.4934 137.217 30.1829C137.214 30.2755 137.221 30.3681 137.238 30.4591C137.283 30.7382 137.431 30.8451 137.645 30.8451C137.745 30.8399 137.844 30.826 137.942 30.8036C139.129 30.5066 141.086 28.7487 142.817 27.0176C143.826 25.9679 144.749 24.8378 145.575 23.6384C145.655 23.517 145.706 23.3788 145.723 23.2346C145.723 23.19 145.703 23.1485 145.703 23.1039C145.703 22.997 145.851 22.9139 145.979 22.9139C146.032 22.9094 146.085 22.924 146.128 22.955C146.172 22.986 146.203 23.0314 146.216 23.0831C146.299 23.3801 146.471 23.4454 146.944 23.677C147.264 23.8255 147.499 23.9977 147.499 24.3808C147.494 24.481 147.479 24.5805 147.454 24.6777C147.178 25.6814 145.468 27.1156 145.21 29.2327C145.21 29.2951 145.189 29.3604 145.189 29.4228C145.189 29.9157 145.423 30.2572 145.875 30.2572C146.036 30.2482 146.195 30.2121 146.344 30.1503C147.947 29.5564 152.074 24.2709 153.291 23.4365C153.318 23.4222 153.347 23.415 153.377 23.4157C153.419 23.4157 153.419 23.4157 153.443 23.4365C153.466 23.4573 153.463 23.4573 153.463 23.481C153.46 23.4995 153.452 23.517 153.441 23.5319C153.43 23.5469 153.415 23.559 153.398 23.5671C152.161 24.7076 150.989 25.9171 149.889 27.1898C148.606 28.6003 147.451 29.883 146.403 30.2898C146.228 30.3672 146.039 30.4105 145.848 30.4175C145.272 30.4175 144.928 29.9484 144.907 29.307C144.907 27.6174 146.362 25.8417 146.831 24.8529C146.894 24.7334 146.93 24.6017 146.938 24.4669C146.939 24.42 146.928 24.3735 146.906 24.3323C146.883 24.291 146.85 24.2565 146.81 24.2323C146.555 24.0658 146.282 23.9293 145.996 23.8255C145.972 23.8089 145.943 23.8016 145.913 23.8047C145.889 23.8083 145.867 23.8182 145.848 23.8333C145.83 23.8485 145.815 23.8683 145.806 23.8908C144.913 25.0604 143.956 26.1795 142.938 27.2433C141.157 29.0249 139.079 30.7293 138.022 31.0055C137.925 31.0317 137.825 31.0466 137.725 31.05C137.566 31.0597 137.406 31.0272 137.264 30.9558C137.121 30.8843 136.999 30.7765 136.911 30.6432C136.821 30.4522 136.776 30.2428 136.781 30.0315Z" fill="#843F00"/>
<path d="M152.858 28.045C152.678 28.0204 152.51 27.9416 152.376 27.819C152.243 27.6964 152.15 27.536 152.11 27.359C152.051 27.1211 152.023 26.8766 152.027 26.6315C152.022 26.5104 152.029 26.3891 152.047 26.2693C152.282 24.9004 153.235 23.0623 154.292 22.2279C154.566 22.0138 154.903 21.8978 155.251 21.8983C155.764 21.8983 156.254 22.1953 156.254 22.9673C156.251 23.0969 156.237 23.2259 156.213 23.3533C156.171 23.5434 156.061 23.9947 155.999 24.2441C156.503 24.4392 157.041 24.534 157.582 24.5233C158.967 24.4705 160.327 24.135 161.578 23.5374C161.633 23.5161 161.691 23.5021 161.75 23.4958C161.815 23.4958 161.857 23.5166 161.857 23.5612C161.857 23.6057 161.792 23.6889 161.622 23.7512C160.402 24.2999 159.096 24.6334 157.763 24.7371C157.614 24.7371 157.466 24.7578 157.314 24.7578C156.824 24.786 156.333 24.6975 155.883 24.4995C155.289 25.7823 154.696 27.0235 153.487 27.8133C153.32 27.9539 153.112 28.0371 152.893 28.0509L152.858 28.045ZM152.582 27.2729C152.582 27.4659 152.623 27.6174 152.775 27.6174C152.907 27.5882 153.031 27.5293 153.137 27.4451C153.885 26.8899 155.061 25.1795 155.381 24.2174C155.103 23.954 154.898 23.6223 154.788 23.2553C153.897 24.2382 152.781 25.8417 152.608 26.9522C152.589 27.058 152.579 27.1653 152.579 27.2729H152.582ZM155.212 23.0415C155.236 23.3161 155.357 23.5732 155.554 23.7661C155.677 23.4582 155.756 23.1342 155.788 22.804C155.763 22.7644 155.729 22.7319 155.688 22.7095C155.647 22.6872 155.6 22.6757 155.554 22.6763C155.472 22.671 155.391 22.6969 155.328 22.7487C155.265 22.8005 155.223 22.8743 155.212 22.9554V23.0415Z" fill="#843F00"/>
<path d="M160.381 33.5591C159.375 33.5591 158.778 32.9831 158.778 32.0744C158.812 31.4204 159.017 30.7868 159.372 30.2364C160.856 27.7124 163.884 26.002 166.47 25.0845C166.298 24.6777 162.017 25.126 161.616 23.6948C161.592 23.6036 161.578 23.51 161.575 23.4157C161.575 21.6637 165.295 18.8398 166.791 18.8398C166.856 18.8398 166.919 18.8606 166.96 18.8606C167.206 18.9037 167.436 19.0079 167.631 19.1636C167.825 19.3193 167.978 19.5214 168.074 19.7514C168.092 19.7986 168.099 19.8495 168.094 19.8999C168.094 20.2206 167.839 20.7551 167.501 20.7551C167.308 20.7551 167.115 20.6274 166.907 20.2414C166.845 20.0929 166.693 20.0276 166.479 20.0276C165.292 20.0276 162.323 22.1656 162.323 23.3207V23.3652C162.364 23.8789 163.433 24.0482 164.502 24.1551C165.571 24.262 166.684 24.262 167.026 24.8618C168.46 24.3481 171.963 23.5998 173.483 23.4068C173.574 23.3904 173.667 23.3834 173.759 23.386C173.911 23.386 173.997 23.4068 173.997 23.4483C173.997 23.4899 173.911 23.5345 173.676 23.579C172.349 23.7928 168.673 24.6034 167.325 25.1825C167.281 25.2033 167.281 25.224 167.281 25.2686C167.392 25.6219 167.457 25.9882 167.474 26.3583C167.466 26.8199 167.372 27.276 167.198 27.7035C166.277 30.0345 164.181 32.3239 161.854 33.2414C161.386 33.4352 160.887 33.5429 160.381 33.5591ZM159.119 32.0418C159.119 32.7485 159.588 33.1107 160.307 33.1107C160.725 33.0969 161.138 33.0104 161.527 32.8554C163.879 31.9646 166.185 29.2921 166.892 26.8899C166.95 26.6974 166.98 26.4972 166.978 26.296C166.98 26.0009 166.898 25.7114 166.741 25.4616C164.475 26.1891 160.948 28.2202 159.686 30.3789C159.358 30.8752 159.162 31.4479 159.119 32.0418Z" fill="#843F00"/>
<path d="M33.5055 0.221802C36.1954 0.221802 39.488 2.05095 40.5865 5.21335C41.0592 6.57209 41.3391 7.99043 41.4178 9.42692C41.4445 9.89905 41.4713 10.3682 41.4713 10.8403C41.4713 14.1304 40.6073 17.2156 39.1198 20.2207C36.8186 24.7573 33.6912 28.8247 29.8982 32.214C26.0564 35.6882 22.268 38.3013 17.0159 39.1654C16.6023 39.2385 16.1829 39.2733 15.763 39.2693C14.9376 39.2711 14.1173 39.1387 13.3344 38.8773C12.536 38.6482 11.8139 38.2088 11.2435 37.6049C10.6731 37.001 10.2755 36.255 10.0922 35.4447C9.86625 34.6185 9.75241 33.7655 9.75379 32.9089C9.7467 31.6223 10.0416 30.352 10.6148 29.2001C13.0731 24.2086 16.9921 21.0729 21.5614 18.1718C21.98 17.9105 22.4521 17.7293 22.7905 17.3641C23.0597 16.9563 23.279 16.5177 23.4437 16.0576C25.1539 12.4932 27.2104 9.10563 29.5835 5.94382C29.8448 5.60531 30.2367 5.02925 30.6286 5.02925C30.7021 5.02053 30.7762 5.03959 30.8364 5.0827C30.8975 5.12097 30.947 5.17524 30.9794 5.23963C31.0119 5.30401 31.0261 5.37605 31.0205 5.44793C31.0205 5.86662 30.6553 6.43971 30.4712 6.75447L25.2993 15.5082C25.2315 15.6638 25.1531 15.8146 25.0648 15.9596C25.096 15.9784 25.1322 15.9877 25.1687 15.9863C25.2726 15.9863 25.326 15.9091 25.4032 15.8824C26.8402 15.0985 27.8081 14.5758 29.3757 14.1839C29.3994 14.1839 29.4262 14.1572 29.4529 14.1572C29.5568 14.1572 29.6607 14.2373 29.6607 14.3145C29.6607 14.3917 29.5568 14.4719 29.3638 14.5224C27.716 14.9945 26.2553 15.8824 24.7916 16.7435C24.6064 16.8535 24.4601 17.0186 24.373 17.2156C22.4907 20.6126 17.7106 31.0114 17.2148 34.9043C17.1881 35.2012 17.0574 35.2963 16.9535 35.2963C16.8913 35.2963 16.8317 35.2715 16.7877 35.2276C16.7437 35.1836 16.719 35.1239 16.719 35.0617V34.9637C16.719 31.9943 21.2378 21.2451 22.4669 18.2668C22.3765 18.2925 22.289 18.3273 22.2056 18.3707C17.77 21.257 13.5689 24.4966 11.2383 29.408C10.7015 30.5526 10.4247 31.8019 10.4277 33.0663C10.4314 33.5914 10.4751 34.1156 10.5584 34.6341C11.0008 37.5085 13.3522 38.6339 15.861 38.6339C16.6106 38.6261 17.3564 38.5263 18.0817 38.3369C21.2091 37.599 24.1349 36.1795 26.6502 34.1798C30.0734 31.4093 33.1819 28.3776 35.664 24.7193C37.4542 22.1391 38.8622 19.3137 39.8443 16.3308C40.3804 14.5922 40.6458 12.7814 40.631 10.9621C40.6482 9.18077 40.3837 7.40793 39.8472 5.70924C38.909 2.99224 36.5814 1.21358 33.7341 1.21358H33.6837C28.8264 1.21358 24.6728 2.80814 20.7776 5.56671C19.8869 6.21997 20.6232 6.58521 19.8869 6.97717C19.6256 7.10782 19.0526 7.47306 18.6072 7.47306C18.5044 7.47903 18.402 7.4539 18.3136 7.40095C18.2252 7.34799 18.1547 7.26965 18.1114 7.17612C18.0611 7.07879 18.0347 6.97091 18.0342 6.86136C18.0342 6.51988 18.3994 6.2081 18.6607 5.97055C19.7583 5.03727 20.9389 4.20634 22.1878 3.48813C25.7417 1.37096 29.1144 0.405904 33.2086 0.221802H33.5055Z" fill="#843F00"/>
<path d="M41.575 28.4696C40.2182 28.4696 39.669 27.4481 39.669 26.391C39.6674 25.9834 39.7471 25.5796 39.9035 25.2033C40.2587 24.3045 40.7945 23.4881 41.4778 22.8047C42.1611 22.1213 42.9773 21.5855 43.876 21.2302C44.0944 21.1216 44.3358 21.0676 44.5796 21.0728C44.6901 21.067 44.8006 21.0842 44.904 21.1235C45.0075 21.1627 45.1016 21.2231 45.1804 21.3008C45.2592 21.3785 45.3209 21.4717 45.3616 21.5746C45.4023 21.6775 45.4212 21.7878 45.4169 21.8983C45.4184 22.1606 45.3362 22.4165 45.1823 22.6288C44.9494 23.0125 44.6474 23.3498 44.2916 23.6235C43.5613 24.1194 42.7508 24.5619 41.9669 25.0073C41.7363 25.1397 41.4758 25.2112 41.2099 25.2151C41.0417 25.2137 40.8747 25.1877 40.714 25.1379C40.4336 25.5368 40.2785 26.0104 40.2687 26.4979C40.2687 27.3323 40.8625 27.9084 41.9432 27.9084C42.2432 27.9105 42.5424 27.8756 42.8339 27.8044C45.3931 27.1749 49.5734 24.9033 51.5864 23.3504C51.6053 23.3272 51.6288 23.3081 51.6553 23.2943C51.6819 23.2805 51.7109 23.2723 51.7408 23.2702C51.7675 23.2702 51.7942 23.2969 51.7942 23.3504C51.7942 23.4038 51.7675 23.4276 51.6903 23.5048C49.808 25.1528 44.4252 28.3152 41.7354 28.4458L41.575 28.4696ZM41.1594 24.4193C42.2817 24.0779 43.9532 22.7446 44.0838 22.0913C42.8309 22.4922 41.9937 23.383 41.1594 24.4193ZM44.0571 19.6356C44.737 19.1398 45.3902 18.5904 46.0968 18.1717C46.2046 18.0709 46.342 18.0074 46.4887 17.9906H46.5124C46.5926 17.9906 46.6965 18.1213 46.7232 18.2252C46.7499 18.2252 46.7499 18.2519 46.7499 18.2786C46.7499 18.3054 46.6965 18.3826 46.6698 18.433C46.5926 18.4598 46.5391 18.5132 46.462 18.5399C45.7286 19.0358 44.9775 19.4783 44.2412 19.9504C44.1735 20.005 44.0926 20.0409 44.0066 20.0543C43.9891 20.0557 43.9715 20.0532 43.9551 20.0471C43.9386 20.041 43.9237 20.0314 43.9113 20.019C43.8989 20.0066 43.8893 19.9917 43.8832 19.9752C43.8771 19.9588 43.8747 19.9412 43.876 19.9237C43.8742 19.9099 43.8754 19.8958 43.8795 19.8825C43.8836 19.8692 43.8905 19.8569 43.8997 19.8465C43.9376 19.7664 43.9911 19.6947 44.0571 19.6356Z" fill="#843F00"/>
<path d="M49.9358 29.408C49.8721 29.4036 49.81 29.3864 49.7531 29.3575C49.6962 29.3287 49.6456 29.2887 49.6044 29.24C49.5632 29.1913 49.5321 29.1348 49.513 29.0739C49.494 29.013 49.4873 28.9489 49.4934 28.8854C49.4877 28.7839 49.505 28.6824 49.5439 28.5885C50.0931 27.0473 50.6691 25.5033 51.2688 23.9889C52.9166 19.9921 55.0305 16.3071 57.9579 13.0912C58.7684 12.2301 60.152 10.8968 61.3277 10.585C61.4249 10.5621 61.5249 10.5531 61.6246 10.5583C62.1471 10.5583 62.4351 10.977 62.4351 11.4996C62.4416 11.7245 62.3969 11.9478 62.3045 12.1529C62.1665 12.5013 61.9913 12.8339 61.7819 13.1447C59.5842 16.715 56.8991 19.9611 53.8043 22.7892C53.0458 23.4457 52.4622 24.2803 52.1061 25.2182C51.9496 25.5821 51.8351 25.9627 51.7647 26.3525L54.6386 23.7394C55.1107 23.3475 55.9717 22.8249 56.7169 22.8249C56.9711 22.822 57.2189 22.9046 57.4205 23.0595C58.1539 23.686 57.8392 24.4966 58.0143 24.4966H58.0648C60.2084 23.7127 61.9066 23.4781 64.1274 23.3089C64.265 23.2889 64.404 23.28 64.5431 23.2822C64.5539 23.2807 64.565 23.2817 64.5754 23.2853C64.5858 23.2888 64.5952 23.2946 64.603 23.3024C64.6108 23.3101 64.6166 23.3196 64.6201 23.33C64.6236 23.3404 64.6247 23.3515 64.6232 23.3623C64.6232 23.3861 64.5965 23.4128 64.5431 23.4128C63.786 23.5167 63.3555 23.5435 62.6637 23.6474C61.2003 23.8438 59.769 24.2311 58.4062 24.7995C58.246 24.8506 58.1017 24.9423 57.9872 25.0656C57.8728 25.1889 57.7921 25.3396 57.7531 25.5033C56.8119 28.7429 55.1908 30.5512 52.9701 32.8198C52.7135 33.0809 52.4117 33.2931 52.0794 33.4464C51.8747 33.5708 51.6389 33.6346 51.3995 33.6305C50.8057 33.6305 50.2772 33.1851 50.2772 32.3774C50.2772 31.7479 50.5741 30.9135 51.4262 29.892C53.5045 27.3859 54.6653 26.4713 57.0969 24.8767C57.2008 24.7995 57.2513 24.7995 57.2513 24.6926C57.2743 24.5374 57.2832 24.3803 57.278 24.2235V24.0394C57.2008 23.6236 56.9811 23.3356 56.6248 23.3356C56.4871 23.3335 56.3515 23.3695 56.2329 23.4395C53.9617 24.4848 51.9755 27.0978 50.485 29.0576C50.4277 29.1553 50.3481 29.2381 50.2526 29.299C50.1571 29.3599 50.0485 29.3973 49.9358 29.408ZM57.1207 25.4617C57.1077 25.4469 57.0897 25.4374 57.0702 25.435C56.9168 25.4977 56.7753 25.5861 56.6516 25.6963C54.8107 26.8724 53.2065 28.3832 51.922 30.1504C51.2184 31.1154 50.9037 31.8993 50.9037 32.3952C50.9037 32.7367 51.061 32.9178 51.3223 32.9178C51.5835 32.9178 52.0526 32.71 52.5752 32.2141C54.3744 30.5488 55.8229 28.5408 56.8356 26.308C56.9396 26.0467 57.0168 25.7854 57.0969 25.524C57.0969 25.5151 57.1207 25.4884 57.1207 25.4617ZM53.5935 22.329C53.6748 22.2815 53.7464 22.2191 53.8043 22.1449C56.6516 19.1933 59.6027 15.8735 61.5236 12.1885C61.6088 11.9589 61.6782 11.7238 61.7315 11.4848C61.6844 11.4642 61.6405 11.4372 61.6008 11.4046C61.4096 11.4946 61.2259 11.5999 61.0516 11.7193C60.6185 12.0478 60.2088 12.406 59.8254 12.7913C57.2705 15.6314 55.1686 18.8484 53.5935 22.329Z" fill="#843F00"/>
<path d="M64.0858 28.9893C63.8704 28.9566 63.67 28.8593 63.5109 28.7104C63.3519 28.5614 63.2418 28.3677 63.1951 28.1549C63.1209 27.8639 63.086 27.5643 63.0911 27.2641C63.0865 27.1152 63.0944 26.9662 63.1149 26.8187C63.4118 25.1469 64.5519 22.8991 65.8582 21.8806C66.1952 21.6105 66.614 21.4629 67.0458 21.4619C67.6753 21.4619 68.275 21.8271 68.275 22.7684C68.2704 22.927 68.2525 23.085 68.2215 23.2406C68.1711 23.4752 68.0404 24.0245 67.9603 24.3363C68.5774 24.5741 69.2348 24.6901 69.8961 24.6778C71.5943 24.6778 73.5004 24.0839 74.78 23.4752C74.8476 23.4479 74.9185 23.4299 74.9908 23.4217C75.068 23.4217 75.1185 23.4484 75.1185 23.5019C75.1185 23.5553 75.0413 23.6563 74.8216 23.7365C73.3246 24.4002 71.7249 24.8019 70.092 24.9242C69.9079 24.9242 69.7268 24.948 69.5427 24.948C68.9446 24.9879 68.3455 24.8862 67.794 24.651C67.0607 26.2189 66.3303 27.7333 64.8666 28.7013C64.661 28.8756 64.4051 28.9796 64.1362 28.9982L64.0858 28.9893ZM63.7443 28.051C63.7443 28.2856 63.7978 28.4697 63.9818 28.4697C64.1438 28.4352 64.2954 28.363 64.4242 28.2589C65.3387 27.5789 66.7757 25.4884 67.1676 24.3125C66.8223 23.9891 66.5701 23.5789 66.4372 23.1248C65.3654 24.3125 63.9818 26.2872 63.7651 27.6472C63.749 27.7812 63.746 27.9164 63.7562 28.051H63.7443ZM66.9597 22.8753C66.9888 23.2127 67.1373 23.5285 67.3784 23.7662C67.5338 23.3865 67.6338 22.9865 67.6753 22.5784C67.6454 22.527 67.6018 22.4851 67.5493 22.4572C67.4968 22.4294 67.4376 22.4169 67.3784 22.421C67.2787 22.414 67.1801 22.4451 67.1024 22.5079C67.0247 22.5707 66.9738 22.6606 66.9597 22.7595V22.8753Z" fill="#843F00"/>
<path d="M73.6609 31.0025C73.6609 28.7814 76.0627 25.8298 76.3507 24.7668C76.3507 24.7134 76.3775 24.6629 76.3775 24.6094C76.3775 23.9057 74.893 23.9562 74.2339 23.5137C74.0903 23.3501 74.0158 23.1372 74.026 22.9198C74.0612 22.3194 74.3012 21.7493 74.7059 21.3045C74.8586 21.1538 75.0645 21.0695 75.2789 21.0699C75.3907 21.0643 75.5025 21.0809 75.6079 21.1187C75.7132 21.1564 75.8101 21.2147 75.8928 21.29C75.9756 21.3653 76.0427 21.4563 76.0902 21.5576C76.1377 21.659 76.1647 21.7687 76.1696 21.8806C76.1632 22.176 76.0418 22.4572 75.8312 22.6645C76.7456 22.9792 77.6333 23.291 77.6333 24.2858C77.6401 24.4526 77.6231 24.6196 77.5829 24.7816C77.4255 25.616 74.2368 29.0398 74.2368 31.2876V31.445C74.2394 31.7234 74.3366 31.9928 74.5125 32.2086C74.6884 32.4245 74.9325 32.5741 75.2047 32.6327C75.3239 32.6645 75.4466 32.6814 75.5699 32.6832C78.6249 32.6832 86.0711 24.7401 88.1107 23.5909C88.2919 23.487 88.4759 23.4068 88.66 23.294C88.7105 23.3474 88.7372 23.3979 88.7639 23.4246C88.6702 23.5446 88.5543 23.6454 88.4225 23.7216C85.2368 25.7081 78.7586 33.0247 75.466 33.0247C75.3515 33.03 75.2368 33.0211 75.1246 32.998C74.8037 32.9637 74.5012 32.8313 74.2583 32.6187C74.0155 32.4061 73.8442 32.1238 73.7678 31.8102C73.6868 31.5489 73.6507 31.2759 73.6609 31.0025Z" fill="#843F00"/>
<path d="M87.9237 26.3792C87.7593 26.3835 87.5996 26.3241 87.4779 26.2134C87.3562 26.1028 87.2819 25.9494 87.2705 25.7854C87.2755 25.7048 87.2935 25.6256 87.3239 25.5508C87.4279 25.236 87.5318 24.9569 87.6624 24.6362C88.0916 23.7705 88.6868 22.9977 89.4141 22.3617C89.8218 22.0117 90.3406 21.8181 90.8778 21.8153C91.1572 21.8022 91.4353 21.8599 91.6865 21.9829C91.9377 22.1059 92.1538 22.2903 92.3148 22.519C92.3385 22.5458 92.3385 22.5458 92.3653 22.5458C92.4692 22.5458 92.5998 22.3884 92.7304 22.3617C92.7572 22.3617 92.8106 22.3379 92.8373 22.3379C93.0451 22.3379 93.1491 22.5725 93.1491 22.8071C93.1552 22.8775 93.146 22.9484 93.1223 23.0149C92.9412 23.591 91.816 25.4973 91.816 26.5782C91.8017 26.672 91.8092 26.7677 91.8379 26.8581C91.8666 26.9485 91.9157 27.0311 91.9815 27.0994C92.0472 27.1678 92.1278 27.22 92.217 27.2522C92.3063 27.2844 92.4017 27.2956 92.4959 27.2849H92.5226C96.0854 27.2849 100.649 23.496 101.041 23.3386H101.067C101.091 23.3386 101.091 23.3386 101.091 23.3653C101.09 23.3845 101.081 23.4025 101.067 23.4158C99.4195 25.0905 95.0047 27.6234 92.68 27.7273H92.5226C91.5043 27.7273 91.1628 27.1008 91.1628 26.3436C91.1946 25.6193 91.3819 24.9104 91.7121 24.265C90.8065 24.8352 89.0252 26.0556 88.1345 26.3525C88.0665 26.3745 87.995 26.3836 87.9237 26.3792ZM88.7283 25.046C88.7283 25.1232 88.755 25.1499 88.7817 25.1499C88.8277 25.1387 88.8717 25.1207 88.9123 25.0965C89.8538 24.5766 90.7232 23.9357 91.4983 23.1901C91.4445 23.0827 91.3624 22.992 91.261 22.9276C91.1595 22.8633 91.0424 22.8278 90.9223 22.8249C90.7935 22.8264 90.6675 22.8623 90.5572 22.9288C89.8666 23.3664 89.2856 23.9566 88.8589 24.654C88.7875 24.7737 88.7429 24.9074 88.7283 25.046Z" fill="#843F00"/>
</g>
<path d="M112.39 43.9347H113.784C114.499 43.9347 114.988 44.3315 114.988 45.0219C114.988 45.7122 114.488 46.1172 113.749 46.1172H112.781V47.7289H112.39V43.9347ZM112.781 45.7774H113.749C114.32 45.7774 114.564 45.4839 114.564 45.0246C114.57 44.9188 114.552 44.8131 114.513 44.715C114.473 44.6168 114.412 44.5288 114.334 44.4571C114.256 44.3853 114.163 44.3318 114.062 44.3002C113.961 44.2686 113.854 44.2598 113.749 44.2744H112.781V45.7774Z" fill="#1E1E1E"/>
<path d="M116.089 46.6934C116.197 47.1745 116.524 47.449 117.113 47.449C117.76 47.449 118.013 47.1337 118.013 46.7478C118.013 46.3618 117.823 46.0982 117.024 45.9025C116.178 45.6932 115.847 45.4133 115.847 44.8697C115.847 44.3261 116.235 43.8804 117.064 43.8804C117.893 43.8804 118.29 44.3941 118.342 44.8724H117.942C117.863 44.4973 117.624 44.212 117.045 44.212C116.537 44.212 116.257 44.4457 116.257 44.8398C116.257 45.2339 116.491 45.3834 117.173 45.5519C118.26 45.8237 118.421 46.2422 118.421 46.7097C118.421 47.294 117.994 47.7751 117.092 47.7751C116.14 47.7751 115.765 47.2315 115.692 46.688L116.089 46.6934Z" fill="#1E1E1E"/>
<path d="M119.807 43.9347V47.7397H119.418V43.9347H119.807Z" fill="#1E1E1E"/>
<path d="M123.976 46.688C123.9 47.0133 123.711 47.3011 123.443 47.5002C123.175 47.6993 122.845 47.7967 122.511 47.7751C121.402 47.7751 120.829 46.9108 120.829 45.84C120.829 44.8126 121.397 43.8804 122.525 43.8804C123.378 43.8804 123.862 44.3587 123.979 44.9947H123.593C123.532 44.7579 123.39 44.5501 123.191 44.4079C122.992 44.2657 122.75 44.1982 122.506 44.2174C121.612 44.2174 121.239 45.0328 121.239 45.8291C121.239 46.6254 121.601 47.4299 122.528 47.4299C122.762 47.4417 122.994 47.3745 123.186 47.2391C123.379 47.1036 123.52 46.9076 123.588 46.6825L123.976 46.688Z" fill="#1E1E1E"/>
<path d="M128.227 45.7991C128.227 46.8374 127.659 47.775 126.477 47.775C125.39 47.775 124.764 46.9135 124.764 45.8236C124.764 44.7337 125.381 43.8803 126.523 43.8803C127.572 43.8803 128.227 44.6902 128.227 45.7991ZM125.164 45.8154C125.164 46.6634 125.618 47.4462 126.485 47.4462C127.423 47.4462 127.806 46.6797 127.806 45.8154C127.806 44.9511 127.382 44.2228 126.504 44.2228C125.58 44.2228 125.164 44.9838 125.164 45.8154ZM127.561 42.8094L126.64 43.5569H126.232L127.066 42.8094H127.561Z" fill="#1E1E1E"/>
<path d="M129.241 43.9347H129.629V47.3864H131.641L131.578 47.7289H129.241V43.9347Z" fill="#1E1E1E"/>
<path d="M135.56 45.7992C135.56 46.8374 134.992 47.7751 133.809 47.7751C132.722 47.7751 132.097 46.9135 132.097 45.8237C132.097 44.7338 132.714 43.8804 133.861 43.8804C134.905 43.8804 135.56 44.6903 135.56 45.7992ZM132.502 45.8155C132.502 46.6635 132.956 47.4462 133.823 47.4462C134.761 47.4462 135.144 46.6798 135.144 45.8155C135.144 44.9512 134.715 44.2228 133.837 44.2228C132.913 44.2228 132.502 44.9838 132.502 45.8155Z" fill="#1E1E1E"/>
<path d="M139.569 47.7289H139.264C139.23 47.5407 139.216 47.3493 139.224 47.1582C139.074 47.4299 138.764 47.7697 138.02 47.7697C136.932 47.7697 136.359 46.9543 136.359 45.8672C136.359 44.7338 136.968 43.8804 138.093 43.8804C138.941 43.8804 139.49 44.3288 139.604 45.0192H139.215C139.156 44.7696 139.009 44.5497 138.801 44.4C138.593 44.2502 138.337 44.1805 138.082 44.2038C137.163 44.2038 136.769 44.9268 136.769 45.8345C136.769 46.6635 137.158 47.4218 138.052 47.4218C138.946 47.4218 139.199 46.8293 139.199 46.0791V46.0357H138.044V45.7068H139.569V47.7289Z" fill="#1E1E1E"/>
<path d="M141.246 46.495L140.797 47.7289H140.406L141.781 43.9238H142.251L143.684 47.7289H143.268L142.806 46.495H141.246ZM142.694 46.1525C142.287 45.0844 142.091 44.5462 142.015 44.2772C141.923 44.5788 141.689 45.2366 141.368 46.1525H142.694Z" fill="#1E1E1E"/>
<path d="M149.062 46.688C148.986 47.0133 148.798 47.3011 148.529 47.5002C148.261 47.6993 147.931 47.7967 147.597 47.7751C146.489 47.7751 145.915 46.9108 145.915 45.84C145.915 44.8126 146.483 43.8804 147.611 43.8804C148.462 43.8804 148.945 44.3587 149.065 44.9947H148.679C148.618 44.7579 148.476 44.5501 148.277 44.4079C148.078 44.2657 147.836 44.1982 147.592 44.2174C146.695 44.2174 146.325 45.0328 146.325 45.8291C146.325 46.6254 146.687 47.4299 147.614 47.4299C147.849 47.4417 148.08 47.3745 148.273 47.2391C148.465 47.1036 148.606 46.9076 148.674 46.6825L149.062 46.688Z" fill="#1E1E1E"/>
<path d="M150.054 43.9347H150.44V47.3864H152.454L152.392 47.7289H150.054V43.9347Z" fill="#1E1E1E"/>
<path d="M154.544 42.8448L153.62 43.5923H153.213L154.028 42.8448H154.544ZM153.615 43.932V47.7371H153.229V43.932H153.615Z" fill="#1E1E1E"/>
<path d="M154.903 47.7289V43.9238H155.447C156.018 44.8235 157.314 46.8374 157.54 47.2505C157.507 46.7314 157.51 46.1634 157.51 45.5355V43.9347H157.89V47.7398H157.387C156.844 46.8863 155.52 44.7501 155.265 44.3369C155.292 44.8071 155.289 45.3996 155.289 46.0873V47.7289H154.903Z" fill="#1E1E1E"/>
<path d="M159.561 43.9347V47.7397H159.176V43.9347H159.561Z" fill="#1E1E1E"/>
<path d="M163.734 46.688C163.658 47.0133 163.469 47.3011 163.2 47.5002C162.932 47.6993 162.602 47.7967 162.269 47.7751C161.16 47.7751 160.586 46.9108 160.586 45.84C160.586 44.8126 161.154 43.8804 162.279 43.8804C163.133 43.8804 163.617 44.3587 163.736 44.9947H163.348C163.288 44.7573 163.146 44.5489 162.947 44.4065C162.748 44.2641 162.504 44.1971 162.26 44.2174C161.364 44.2174 160.994 45.0328 160.994 45.8291C160.994 46.6254 161.355 47.4299 162.285 47.4299C162.52 47.4417 162.752 47.3745 162.944 47.2391C163.136 47.1036 163.277 46.9076 163.345 46.6825L163.734 46.688Z" fill="#1E1E1E"/>
<path d="M165.141 46.495L164.69 47.7289H164.302L165.677 43.9238H166.147L167.579 47.7289H167.163L166.701 46.495H165.141ZM166.59 46.1525C166.193 45.0844 165.987 44.5462 165.908 44.2772C165.815 44.5788 165.582 45.2366 165.264 46.1525H166.59Z" fill="#1E1E1E"/>
<defs>
<linearGradient id="paint0_linear_1081_4921" x1="1.85539" y1="8.41391" x2="8.67098" y2="8.41391" gradientUnits="userSpaceOnUse">
<stop offset="0.1" stop-color="#FFCF48"/>
<stop offset="0.41" stop-color="#F19F29"/>
<stop offset="0.73" stop-color="#E5710B"/>
<stop offset="0.9" stop-color="#E06000"/>
</linearGradient>
<linearGradient id="paint1_linear_1081_4921" x1="1.39429" y1="12.056" x2="10.4625" y2="12.056" gradientUnits="userSpaceOnUse">
<stop offset="0.1" stop-color="#FFCF48"/>
<stop offset="0.41" stop-color="#F19F29"/>
<stop offset="0.73" stop-color="#E5710B"/>
<stop offset="0.9" stop-color="#E06000"/>
</linearGradient>
<linearGradient id="paint2_linear_1081_4921" x1="6.62817" y1="16.0312" x2="11.4997" y2="16.0312" gradientUnits="userSpaceOnUse">
<stop offset="0.1" stop-color="#FFCF48"/>
<stop offset="0.41" stop-color="#F19F29"/>
<stop offset="0.73" stop-color="#E5710B"/>
<stop offset="0.9" stop-color="#E06000"/>
</linearGradient>
<linearGradient id="paint3_linear_1081_4921" x1="4.04614" y1="17.7283" x2="11.5355" y2="17.7283" gradientUnits="userSpaceOnUse">
<stop offset="0.1" stop-color="#FFCF48"/>
<stop offset="0.41" stop-color="#F19F29"/>
<stop offset="0.73" stop-color="#E5710B"/>
<stop offset="0.9" stop-color="#E06000"/>
</linearGradient>
<linearGradient id="paint4_linear_1081_4921" x1="0" y1="20.7649" x2="10.3708" y2="20.7649" gradientUnits="userSpaceOnUse">
<stop offset="0.1" stop-color="#FFCF48"/>
<stop offset="0.41" stop-color="#F19F29"/>
<stop offset="0.73" stop-color="#E5710B"/>
<stop offset="0.9" stop-color="#E06000"/>
</linearGradient>
<linearGradient id="paint5_linear_1081_4921" x1="4.07674" y1="19.4624" x2="14.2308" y2="19.4624" gradientUnits="userSpaceOnUse">
<stop offset="0.1" stop-color="#FFCF48"/>
<stop offset="0.41" stop-color="#F19F29"/>
<stop offset="0.73" stop-color="#E5710B"/>
<stop offset="0.9" stop-color="#E06000"/>
</linearGradient>
<linearGradient id="paint6_linear_1081_4921" x1="6.94456" y1="9.06516" x2="13.5004" y2="9.06516" gradientUnits="userSpaceOnUse">
<stop offset="0.1" stop-color="#FFCF48"/>
<stop offset="0.41" stop-color="#F19F29"/>
<stop offset="0.73" stop-color="#E5710B"/>
<stop offset="0.9" stop-color="#E06000"/>
</linearGradient>
<clipPath id="clip0_1081_4921">
<rect width="164.246" height="39.0386" fill="white" transform="translate(9.75391 0.221802)"/>
</clipPath>
</defs>
</svg>
