<svg width="26" height="22" viewBox="0 0 26 22" fill="none" xmlns="http://www.w3.org/2000/svg">
<path d="M25.8528 0.294517V1.12684C25.8528 1.12684 23.5165 0.672908 23.5194 2.4563C23.5313 7.05287 24.977 14.641 14.7797 15.2604V19.244C14.7797 19.244 14.7359 21.204 17.9308 21.2506L17.931 21.7746H8.18422V21.2504C11.3789 21.2038 11.3321 19.2438 11.3321 19.2438V15.2602C1.13777 14.6411 2.58372 7.05314 2.5924 2.45657C2.59829 0.672985 0.262207 1.12693 0.262207 1.12693V0.294608C6.65992 0.0619316 5.80141 2.93356 5.90381 8.30695C6.0347 15.1732 11.3324 14.2827 11.3324 14.2827V2.79381C11.3324 0.850585 8.41453 1.17328 8.41453 1.17328V0.294334H17.7009V1.17328C17.7009 1.17328 14.7802 0.850425 14.7802 2.79381V14.2827C14.7802 14.2827 20.0808 15.1732 20.212 8.30695C20.3138 2.93324 19.455 0.0619225 25.8527 0.294608L25.8528 0.294517Z" fill="#F7F7F7"/>
</svg>
