<svg width="19" height="19" viewBox="0 0 19 19" fill="none" xmlns="http://www.w3.org/2000/svg">
<path fill-rule="evenodd" clip-rule="evenodd" d="M13.8532 11.3858C13.6162 11.2678 12.454 10.6994 12.2376 10.6202C12.0212 10.5418 11.8637 10.5031 11.7054 10.739C11.5479 10.9733 11.0953 11.5037 10.9577 11.6605C10.8193 11.818 10.6817 11.837 10.4454 11.7198C10.2091 11.6011 9.44708 11.3533 8.54421 10.5521C7.84181 9.92831 7.36691 9.15802 7.22929 8.9221C7.09167 8.68698 7.21418 8.55952 7.3327 8.44235C7.4393 8.33706 7.56896 8.16764 7.68748 8.03069C7.80601 7.89294 7.84499 7.79477 7.92374 7.63723C8.00329 7.48048 7.96351 7.34352 7.90385 7.22556C7.84499 7.1076 7.37248 5.9494 7.1752 5.47836C6.98349 5.01998 6.7886 5.08252 6.64382 5.07461C6.50541 5.06827 6.3479 5.06669 6.1904 5.06669C6.03289 5.06669 5.77675 5.12527 5.56038 5.36119C5.34321 5.59631 4.73308 6.16552 4.73308 7.32373C4.73308 8.48114 5.57947 9.59977 5.698 9.75731C5.81652 9.91406 7.36452 12.2906 9.73584 13.3095C10.3006 13.5518 10.7405 13.6966 11.0834 13.8043C11.6498 13.984 12.1652 13.9587 12.5725 13.8977C13.0259 13.8304 13.971 13.3285 14.1682 12.7791C14.3647 12.2297 14.3647 11.7586 14.3058 11.6605C14.247 11.5623 14.0895 11.5037 13.8524 11.3858H13.8532ZM9.54015 17.2465H9.53697C8.12852 17.2467 6.74594 16.8699 5.53413 16.1555L5.24776 15.9861L2.27109 16.7635L3.06577 13.8756L2.87883 13.5795C2.09142 12.3321 1.67471 10.8884 1.67686 9.41531C1.67846 5.10073 5.2056 1.59049 9.54333 1.59049C11.6434 1.59049 13.6178 2.4059 15.1021 3.88473C15.8343 4.61036 16.4146 5.47326 16.8094 6.42352C17.2043 7.37379 17.4059 8.39254 17.4026 9.42085C17.401 13.7354 13.8739 17.2465 9.54015 17.2465ZM16.2317 2.76136C15.3552 1.88334 14.3124 1.18716 13.1636 0.713165C12.0148 0.239166 10.7829 -0.00322702 9.53935 3.24405e-05C4.3258 3.24405e-05 0.0811386 4.22357 0.0795476 9.41452C0.0771318 11.0665 0.512585 12.6899 1.34197 14.121L0 19L5.01468 17.6906C6.40189 18.4428 7.95643 18.8369 9.53617 18.8369H9.54015C14.7537 18.8369 18.9984 14.6134 19 9.42164C19.0038 8.18449 18.7611 6.95885 18.286 5.81563C17.8108 4.67241 17.1126 3.63431 16.2317 2.76136Z" fill="black"/>
</svg>
