<svg width="96" height="97" viewBox="0 0 96 97" fill="none" xmlns="http://www.w3.org/2000/svg">
<path d="M4.63452 93.0137L10.808 70.3241C6.99937 63.6837 4.99647 56.1499 4.99888 48.4341C5.00886 24.2919 24.5291 4.65063 48.5133 4.65063C60.154 4.65593 71.0795 9.21591 79.294 17.4921C87.5103 25.7682 92.0323 36.769 92.0276 48.4684C92.0176 72.6111 72.4962 92.2542 48.515 92.2542C48.5133 92.2542 48.5162 92.2542 48.515 92.2542H48.4956C41.2133 92.2518 34.0577 90.4118 27.7024 86.9253L4.63452 93.0137Z" fill="#54CF61"/>
<path d="M70.3679 26.4391C64.5199 20.5629 56.7439 17.325 48.4592 17.3214C31.3871 17.3214 17.4939 31.2678 17.4871 48.4099C17.4851 53.8894 18.9109 59.2382 21.621 63.9531L17.2271 80.0635L33.6457 75.7404C38.1694 78.2177 43.2627 79.5231 48.4459 79.5252H48.459H48.4592C65.5285 79.5252 79.4238 65.5763 79.431 48.4351C79.4339 40.1272 76.215 32.3157 70.3679 26.4391ZM48.4592 74.2742H48.4491C43.8291 74.2718 39.2986 73.0263 35.3469 70.6717L34.4064 70.1118L24.6632 72.677L27.2645 63.1415L26.6518 62.1639C24.0747 58.0493 22.7143 53.2944 22.7162 48.4119C22.7219 34.1639 34.2694 22.5726 48.4689 22.5726C55.3451 22.5754 61.8079 25.2668 66.6685 30.1509C71.5288 35.035 74.2035 41.5278 74.2014 48.4329C74.1954 62.6813 62.6475 74.2742 48.4592 74.2742Z" fill="#E0E0E0"/>
<path d="M18.6489 78.276L22.8422 62.9015C20.2552 58.402 18.8948 53.2971 18.8964 48.0689C18.9032 31.7102 32.1619 18.4012 48.4527 18.4012C56.3594 18.4048 63.7803 21.4947 69.3599 27.1026C74.9406 32.7105 78.0121 40.1646 78.0089 48.0921C78.0021 64.4512 64.7426 77.7613 48.4539 77.7613C48.4527 77.7613 48.4547 77.7613 48.4539 77.7613H48.4407C43.4943 77.7597 38.634 76.5129 34.3173 74.1505L18.6489 78.276Z" fill="url(#paint0_linear_975_5002)"/>
<path fill-rule="evenodd" clip-rule="evenodd" d="M40.8057 35.2114C40.2327 33.9321 39.6294 33.9065 39.0843 33.8841C38.6384 33.8649 38.1279 33.8661 37.6183 33.8661C37.1082 33.8661 36.2794 34.0586 35.5784 34.8272C34.8771 35.5959 32.9006 37.4541 32.9006 41.2334C32.9006 45.0131 35.6422 48.6652 36.0243 49.1781C36.4069 49.6903 41.3166 57.6938 49.0922 60.7728C55.5543 63.3317 56.8694 62.8227 58.272 62.6947C59.6747 62.5666 62.798 60.8369 63.4356 59.043C64.0731 57.2496 64.0731 55.7123 63.8819 55.391C63.6906 55.0709 63.1805 54.8788 62.4154 54.4947C61.6504 54.1105 57.8895 52.2519 57.1882 51.9958C56.4868 51.7397 55.9768 51.6117 55.4667 52.3808C54.9567 53.149 53.4914 54.8788 53.0451 55.391C52.5988 55.9043 52.1525 55.9683 51.3874 55.5842C50.6223 55.1989 48.1585 54.3886 45.2357 51.7717C42.9615 49.7358 41.4262 47.2213 40.9799 46.4523C40.5336 45.684 40.932 45.2679 41.3158 44.885C41.6592 44.5408 42.0809 43.9882 42.4634 43.5397C42.8451 43.0911 42.9726 42.771 43.2277 42.2588C43.4827 41.7458 43.3552 41.2973 43.1639 40.9132C42.9726 40.5291 41.4859 36.7303 40.8057 35.2114Z" fill="white"/>
<path d="M70.1147 26.3403C64.3339 20.5316 56.6472 17.3309 48.4576 17.3273C31.5815 17.3273 17.8478 31.1135 17.841 48.0589C17.839 53.4756 19.2485 58.7629 21.9274 63.4237L17.584 79.3491L33.8142 75.0756C38.286 77.5244 43.3208 78.8149 48.4445 78.8169H48.4575H48.4576C65.331 78.8169 79.0667 65.0282 79.0739 48.0837C79.0767 39.8713 75.8948 32.1495 70.1147 26.3403ZM48.4576 73.6264H48.4477C43.8807 73.624 39.4021 72.3927 35.4958 70.0652L34.5661 69.5118L24.9348 72.0474L27.5062 62.6214L26.9005 61.6551C24.353 57.5877 23.0081 52.8873 23.0101 48.0609C23.0157 33.9765 34.4306 22.5183 48.4672 22.5183C55.2646 22.5211 61.653 25.1816 66.4579 30.0096C71.2624 34.8377 73.9064 41.2558 73.9044 48.0818C73.8983 62.1665 62.483 73.6264 48.4576 73.6264Z" fill="white"/>
<defs>
<linearGradient id="paint0_linear_975_5002" x1="48.3289" y1="78.276" x2="48.3289" y2="18.4013" gradientUnits="userSpaceOnUse">
<stop stop-color="#20B038"/>
<stop offset="1" stop-color="#60D66A"/>
</linearGradient>
</defs>
</svg>
